# xmcd
#
# Track frame offsets:
#	150
#	14668
#	33887
#	53470
#	71037
#	92505
#	105356
#	124417
#	139276
#	157849
#	173926
#	191045
#	207204
#	221569
#	239368
#	253721
#	269872
#	287507
#
# Disc length: 4073 seconds
# Revision: 0
# Processed by: cddbd v1.5.2PL0 Copyright (c) Steve Scherf et al.
# Submitted via: dBpowerAMP V12.0
#
DISCID=0a0fe712
DTITLE=宋祖英 - 好日子
DYEAR=1999
DGENRE=Folk
TTITLE0=你好嗎
TTITLE1=愛我中華
TTITLE2=又唱瀏陽河
TTITLE3=月亮花兒開
TTITLE4=相約月圓時節
TTITLE5=好日子
TTITLE6=一路時光
TTITLE7=辣妹子
TTITLE8=姚花妹子
TTITLE9=等你來
TTITLE10=十八彎水路到我家
TTITLE11=小背簍
TTITLE12=摇籃歌
TTITLE13=長大後我就成了你
TTITLE14=東南西北兵
TTITLE15=九九艷陽天
TTITLE16=婚誓
TTITLE17=兵哥哥
EXTD=
EXTT0=
EXTT1=
EXTT2=
EXTT3=
EXTT4=
EXTT5=
EXTT6=
EXTT7=
EXTT8=
EXTT9=
EXTT10=
EXTT11=
EXTT12=
EXTT13=
EXTT14=
EXTT15=
EXTT16=
EXTT17=
PLAYORDER=
